<svg data-v-fde0c5aa="" xmlns="http://www.w3.org/2000/svg" viewBox="0 0 300 300" class="font"><!----><defs data-v-fde0c5aa=""><!----></defs><rect data-v-fde0c5aa="" fill="transparent" x="0" y="0" width="300px" height="300px" class="logo-background-square"></rect><defs data-v-fde0c5aa=""><linearGradient data-v-fde0c5aa="" gradientTransform="rotate(25)" id="de34dea1-b257-4c1d-84f1-1de939a38d1e" x1="0%" y1="0%" x2="100%" y2="0%"><stop data-v-fde0c5aa="" offset="0%" stop-color="#007DE8" stop-opacity="1"></stop><stop data-v-fde0c5aa="" offset="100%" stop-color="#A1C3DB" stop-opacity="1"></stop></linearGradient></defs><g data-v-fde0c5aa="" id="9298822c-73c9-47eb-b4d2-5269cd47d8d9" fill="url(#de34dea1-b257-4c1d-84f1-1de939a38d1e)" transform="matrix(6.736068616896586,0,0,6.736068616896586,39.595835866926166,91.69932470747662)"><path d="M3.07 13.55L3.07 5.95L0.06 5.95L0.06 3.75L8.83 3.75L8.83 5.95L5.84 5.95L5.84 13.55L3.07 13.55ZM9.87 13.55L9.87 3.75L12.64 3.75L12.64 13.55L9.87 13.55ZM19.10 3.75L19.10 3.75Q20.43 3.75 21.41 4.19L21.41 4.19L21.41 4.19Q22.39 4.63 22.92 5.45L22.92 5.45L22.92 5.45Q23.45 6.27 23.45 7.38L23.45 7.38L23.45 7.38Q23.45 8.48 22.92 9.30L22.92 9.30L22.92 9.30Q22.39 10.11 21.41 10.55L21.41 10.55L21.41 10.55Q20.43 10.99 19.10 10.99L19.10 10.99L17.39 10.99L17.39 13.55L14.62 13.55L14.62 3.75L19.10 3.75ZM18.93 8.81L18.93 8.81Q19.78 8.81 20.22 8.43L20.22 8.43L20.22 8.43Q20.65 8.06 20.65 7.38L20.65 7.38L20.65 7.38Q20.65 6.69 20.22 6.31L20.22 6.31L20.22 6.31Q19.78 5.94 18.93 5.94L18.93 5.94L17.39 5.94L17.39 8.81L18.93 8.81ZM28.38 13.75L28.38 13.75Q27.19 13.75 26.07 13.45L26.07 13.45L26.07 13.45Q24.95 13.16 24.25 12.67L24.25 12.67L25.16 10.63L25.16 10.63Q25.82 11.06 26.68 11.33L26.68 11.33L26.68 11.33Q27.55 11.59 28.39 11.59L28.39 11.59L28.39 11.59Q29.99 11.59 29.99 10.79L29.99 10.79L29.99 10.79Q29.99 10.37 29.53 10.17L29.53 10.17L29.53 10.17Q29.08 9.97 28.07 9.74L28.07 9.74L28.07 9.74Q26.96 9.51 26.22 9.23L26.22 9.23L26.22 9.23Q25.48 8.96 24.95 8.36L24.95 8.36L24.95 8.36Q24.42 7.76 24.42 6.73L24.42 6.73L24.42 6.73Q24.42 5.84 24.91 5.12L24.91 5.12L24.91 5.12Q25.40 4.40 26.37 3.98L26.37 3.98L26.37 3.98Q27.34 3.56 28.76 3.56L28.76 3.56L28.76 3.56Q29.72 3.56 30.66 3.77L30.66 3.77L30.66 3.77Q31.60 3.99 32.31 4.41L32.31 4.41L31.46 6.47L31.46 6.47Q30.06 5.71 28.74 5.71L28.74 5.71L28.74 5.71Q27.92 5.71 27.54 5.96L27.54 5.96L27.54 5.96Q27.16 6.20 27.16 6.59L27.16 6.59L27.16 6.59Q27.16 6.99 27.61 7.18L27.61 7.18L27.61 7.18Q28.06 7.38 29.05 7.59L29.05 7.59L29.05 7.59Q30.17 7.83 30.91 8.10L30.91 8.10L30.91 8.10Q31.64 8.37 32.18 8.97L32.18 8.97L32.18 8.97Q32.72 9.56 32.72 10.58L32.72 10.58L32.72 10.58Q32.72 11.47 32.23 12.18L32.23 12.18L32.23 12.18Q31.74 12.89 30.76 13.32L30.76 13.32L30.76 13.32Q29.78 13.75 28.38 13.75L28.38 13.75Z"></path></g><!----><!----></svg>