<svg data-v-423bf9ae="" xmlns="http://www.w3.org/2000/svg" viewBox="0 0 303 90" class="iconLeft"><!----><!----><!----><g data-v-423bf9ae="" id="e355eded-aa67-4d56-a505-627570396a7e" fill="black" transform="matrix(5.888125304749934,0,0,5.888125304749934,109.64671865744437,-5.9617243174770564)"><path d="M3.07 13.55L3.07 5.95L0.06 5.95L0.06 3.75L8.83 3.75L8.83 5.95L5.84 5.95L5.84 13.55L3.07 13.55ZM9.87 13.55L9.87 3.75L12.64 3.75L12.64 13.55L9.87 13.55ZM19.10 3.75L19.10 3.75Q20.43 3.75 21.41 4.19L21.41 4.19L21.41 4.19Q22.39 4.63 22.92 5.45L22.92 5.45L22.92 5.45Q23.45 6.27 23.45 7.38L23.45 7.38L23.45 7.38Q23.45 8.48 22.92 9.30L22.92 9.30L22.92 9.30Q22.39 10.11 21.41 10.55L21.41 10.55L21.41 10.55Q20.43 10.99 19.10 10.99L19.10 10.99L17.39 10.99L17.39 13.55L14.62 13.55L14.62 3.75L19.10 3.75ZM18.93 8.81L18.93 8.81Q19.78 8.81 20.22 8.43L20.22 8.43L20.22 8.43Q20.65 8.06 20.65 7.38L20.65 7.38L20.65 7.38Q20.65 6.69 20.22 6.31L20.22 6.31L20.22 6.31Q19.78 5.94 18.93 5.94L18.93 5.94L17.39 5.94L17.39 8.81L18.93 8.81ZM28.38 13.75L28.38 13.75Q27.19 13.75 26.07 13.45L26.07 13.45L26.07 13.45Q24.95 13.16 24.25 12.67L24.25 12.67L25.16 10.63L25.16 10.63Q25.82 11.06 26.68 11.33L26.68 11.33L26.68 11.33Q27.55 11.59 28.39 11.59L28.39 11.59L28.39 11.59Q29.99 11.59 29.99 10.79L29.99 10.79L29.99 10.79Q29.99 10.37 29.53 10.17L29.53 10.17L29.53 10.17Q29.08 9.97 28.07 9.74L28.07 9.74L28.07 9.74Q26.96 9.51 26.22 9.23L26.22 9.23L26.22 9.23Q25.48 8.96 24.95 8.36L24.95 8.36L24.95 8.36Q24.42 7.76 24.42 6.73L24.42 6.73L24.42 6.73Q24.42 5.84 24.91 5.12L24.91 5.12L24.91 5.12Q25.40 4.40 26.37 3.98L26.37 3.98L26.37 3.98Q27.34 3.56 28.76 3.56L28.76 3.56L28.76 3.56Q29.72 3.56 30.66 3.77L30.66 3.77L30.66 3.77Q31.60 3.99 32.31 4.41L32.31 4.41L31.46 6.47L31.46 6.47Q30.06 5.71 28.74 5.71L28.74 5.71L28.74 5.71Q27.92 5.71 27.54 5.96L27.54 5.96L27.54 5.96Q27.16 6.20 27.16 6.59L27.16 6.59L27.16 6.59Q27.16 6.99 27.61 7.18L27.61 7.18L27.61 7.18Q28.06 7.38 29.05 7.59L29.05 7.59L29.05 7.59Q30.17 7.83 30.91 8.10L30.91 8.10L30.91 8.10Q31.64 8.37 32.18 8.97L32.18 8.97L32.18 8.97Q32.72 9.56 32.72 10.58L32.72 10.58L32.72 10.58Q32.72 11.47 32.23 12.18L32.23 12.18L32.23 12.18Q31.74 12.89 30.76 13.32L30.76 13.32L30.76 13.32Q29.78 13.75 28.38 13.75L28.38 13.75Z"></path></g><!----><g data-v-423bf9ae="" id="ca7e42f4-726f-42f5-954d-96160244be19" transform="matrix(1,0,0,1,-5,-5)" stroke="none" fill="black"><path d="M50 5A45 45 0 0 0 5 50a45 45 0 0 0 45 45 45 45 0 0 0 45-45A45 45 0 0 0 50 5zm6.48 19h1.838a.432.432 0 0 1 .315.135l1.64 1.738 1.907.38a.432.432 0 0 1 .28.196l.493.785.692.793a.432.432 0 0 1 .015.55l-2.02 2.595.776 3.58a.432.432 0 0 1-.012.223l-1.43 4.49a.432.432 0 0 1-.124.193l-1.596 1.408-.096 2.774a.432.432 0 0 1-.013.096l-3.47 13.267a.432.432 0 0 1-.04.098l-2.447 4.49a.432.432 0 0 1-.088.111l-2.477 2.28-1.873 4.93.1 4.814a.432.432 0 0 1-.178.36l-2.244 1.632a.432.432 0 0 1-.64-.158l-.718-1.428a.432.432 0 0 1-.017-.346l.263-.703-.273-1.455L43.6 68.94l-2.233-1.263a.432.432 0 0 1-.1-.078l-2.144-2.244a.432.432 0 0 1-.115-.354l.09-.727L37.834 60l-1.424-1.139a.432.432 0 0 1-.152-.427l.906-4.338-.1-3.522a.432.432 0 0 1 .02-.142s.18-.566.385-1.182c.205-.616.407-1.228.56-1.535.09-.18.338-.599.721-1.25.383-.652.874-1.482 1.36-2.299.967-1.629 1.904-3.197 1.91-3.207l3.26-6.213a.432.432 0 0 1 .095-.121l1.879-1.682 2.412-4.726a.432.432 0 0 1 .186-.186l2.345-1.224a.432.432 0 0 1 .104-.04l2.486-.574 1.334-2a.432.432 0 0 1 .36-.191V24z"></path></g><!----></svg>