<svg data-v-423bf9ae="" xmlns="http://www.w3.org/2000/svg" viewBox="0 0 278 90" class="iconLeft"><!----><!----><!----><g data-v-423bf9ae="" id="3d744f4b-d88f-4b33-8621-25b9009af528" fill="white" transform="matrix(5.988024248455585,0,0,5.988024248455585,108.08383426607635,-9.49101865937186)"><path d="M7.69 4.20L7.69 4.20Q7.80 4.20 7.87 4.27L7.87 4.27L7.87 4.27Q7.94 4.34 7.94 4.45L7.94 4.45L7.94 5.95L7.94 5.95Q7.94 6.06 7.87 6.13L7.87 6.13L7.87 6.13Q7.80 6.20 7.69 6.20L7.69 6.20L5.35 6.20L5.35 6.20Q5.25 6.20 5.25 6.30L5.25 6.30L5.25 13.75L5.25 13.75Q5.25 13.86 5.18 13.93L5.18 13.93L5.18 13.93Q5.11 14 5.00 14L5.00 14L3.18 14L3.18 14Q3.07 14 3.00 13.93L3.00 13.93L3.00 13.93Q2.93 13.86 2.93 13.75L2.93 13.75L2.93 6.30L2.93 6.30Q2.93 6.20 2.83 6.20L2.83 6.20L0.57 6.20L0.57 6.20Q0.46 6.20 0.39 6.13L0.39 6.13L0.39 6.13Q0.32 6.06 0.32 5.95L0.32 5.95L0.32 4.45L0.32 4.45Q0.32 4.34 0.39 4.27L0.39 4.27L0.39 4.27Q0.46 4.20 0.57 4.20L0.57 4.20L7.69 4.20ZM9.20 14L9.20 14Q9.09 14 9.02 13.93L9.02 13.93L9.02 13.93Q8.95 13.86 8.95 13.75L8.95 13.75L8.95 4.45L8.95 4.45Q8.95 4.34 9.02 4.27L9.02 4.27L9.02 4.27Q9.09 4.20 9.20 4.20L9.20 4.20L11.02 4.20L11.02 4.20Q11.13 4.20 11.20 4.27L11.20 4.27L11.20 4.27Q11.27 4.34 11.27 4.45L11.27 4.45L11.27 13.75L11.27 13.75Q11.27 13.86 11.20 13.93L11.20 13.93L11.20 13.93Q11.13 14 11.02 14L11.02 14L9.20 14ZM16.83 4.20L16.83 4.20Q17.78 4.20 18.52 4.59L18.52 4.59L18.52 4.59Q19.25 4.98 19.65 5.69L19.65 5.69L19.65 5.69Q20.05 6.40 20.05 7.32L20.05 7.32L20.05 7.32Q20.05 8.23 19.63 8.93L19.63 8.93L19.63 8.93Q19.22 9.63 18.47 10.01L18.47 10.01L18.47 10.01Q17.71 10.39 16.72 10.39L16.72 10.39L15.04 10.39L15.04 10.39Q14.94 10.39 14.94 10.49L14.94 10.49L14.94 13.75L14.94 13.75Q14.94 13.86 14.87 13.93L14.87 13.93L14.87 13.93Q14.80 14 14.69 14L14.69 14L12.87 14L12.87 14Q12.75 14 12.68 13.93L12.68 13.93L12.68 13.93Q12.61 13.86 12.61 13.75L12.61 13.75L12.61 4.45L12.61 4.45Q12.61 4.34 12.68 4.27L12.68 4.27L12.68 4.27Q12.75 4.20 12.87 4.20L12.87 4.20L16.83 4.20ZM16.45 8.54L16.45 8.54Q17.02 8.54 17.38 8.22L17.38 8.22L17.38 8.22Q17.74 7.90 17.74 7.38L17.74 7.38L17.74 7.38Q17.74 6.85 17.38 6.52L17.38 6.52L17.38 6.52Q17.02 6.19 16.45 6.19L16.45 6.19L15.04 6.19L15.04 6.19Q14.94 6.19 14.94 6.29L14.94 6.29L14.94 8.44L14.94 8.44Q14.94 8.54 15.04 8.54L15.04 8.54L16.45 8.54ZM24.53 14.11L24.53 14.11Q23.41 14.11 22.56 13.74L22.56 13.74L22.56 13.74Q21.71 13.37 21.25 12.68L21.25 12.68L21.25 12.68Q20.79 11.98 20.79 11.07L20.79 11.07L20.79 10.89L20.79 10.89Q20.79 10.78 20.86 10.71L20.86 10.71L20.86 10.71Q20.93 10.64 21.04 10.64L21.04 10.64L22.82 10.64L22.82 10.64Q22.93 10.64 23.00 10.69L23.00 10.69L23.00 10.69Q23.07 10.74 23.07 10.81L23.07 10.81L23.07 10.98L23.07 10.98Q23.07 11.42 23.53 11.77L23.53 11.77L23.53 11.77Q23.98 12.12 24.70 12.12L24.70 12.12L24.70 12.12Q25.31 12.12 25.61 11.86L25.61 11.86L25.61 11.86Q25.90 11.59 25.90 11.24L25.90 11.24L25.90 11.24Q25.90 10.85 25.56 10.64L25.56 10.64L25.56 10.64Q25.21 10.43 24.33 10.15L24.33 10.15L24.02 10.05L24.02 10.05Q23.13 9.76 22.46 9.41L22.46 9.41L22.46 9.41Q21.78 9.07 21.31 8.46L21.31 8.46L21.31 8.46Q20.83 7.85 20.83 6.96L20.83 6.96L20.83 6.96Q20.83 6.09 21.29 5.44L21.29 5.44L21.29 5.44Q21.74 4.79 22.55 4.44L22.55 4.44L22.55 4.44Q23.35 4.09 24.37 4.09L24.37 4.09L24.37 4.09Q25.45 4.09 26.31 4.48L26.31 4.48L26.31 4.48Q27.17 4.87 27.66 5.59L27.66 5.59L27.66 5.59Q28.15 6.30 28.15 7.22L28.15 7.22L28.15 7.34L28.15 7.34Q28.15 7.45 28.08 7.52L28.08 7.52L28.08 7.52Q28.01 7.59 27.90 7.59L27.90 7.59L26.12 7.59L26.12 7.59Q26.01 7.59 25.94 7.55L25.94 7.55L25.94 7.55Q25.87 7.52 25.87 7.45L25.87 7.45L25.87 7.32L25.87 7.32Q25.87 6.83 25.44 6.45L25.44 6.45L25.44 6.45Q25.00 6.08 24.28 6.08L24.28 6.08L24.28 6.08Q23.73 6.08 23.42 6.30L23.42 6.30L23.42 6.30Q23.11 6.52 23.11 6.93L23.11 6.93L23.11 6.93Q23.11 7.24 23.31 7.44L23.31 7.44L23.31 7.44Q23.51 7.64 23.92 7.82L23.92 7.82L23.92 7.82Q24.33 7.99 25.19 8.27L25.19 8.27L25.19 8.27Q26.17 8.61 26.71 8.86L26.71 8.86L26.71 8.86Q27.26 9.11 27.74 9.68L27.74 9.68L27.74 9.68Q28.22 10.25 28.22 11.17L28.22 11.17L28.22 11.17Q28.22 12.05 27.76 12.72L27.76 12.72L27.76 12.72Q27.30 13.38 26.46 13.75L26.46 13.75L26.46 13.75Q25.62 14.11 24.53 14.11L24.53 14.11Z"></path></g><!----><g data-v-423bf9ae="" id="18dd4d43-693b-4e69-b3fa-6404443726c0" transform="matrix(1,0,0,1,-5,-5)" stroke="none" fill="white"><path d="M50 5A45 45 0 0 0 5 50a45 45 0 0 0 45 45 45 45 0 0 0 45-45A45 45 0 0 0 50 5zm6.48 19h1.838a.432.432 0 0 1 .315.135l1.64 1.738 1.907.38a.432.432 0 0 1 .28.196l.493.785.692.793a.432.432 0 0 1 .015.55l-2.02 2.595.776 3.58a.432.432 0 0 1-.012.223l-1.43 4.49a.432.432 0 0 1-.124.193l-1.596 1.408-.096 2.774a.432.432 0 0 1-.013.096l-3.47 13.267a.432.432 0 0 1-.04.098l-2.447 4.49a.432.432 0 0 1-.088.111l-2.477 2.28-1.873 4.93.1 4.814a.432.432 0 0 1-.178.36l-2.244 1.632a.432.432 0 0 1-.64-.158l-.718-1.428a.432.432 0 0 1-.017-.346l.263-.703-.273-1.455L43.6 68.94l-2.233-1.263a.432.432 0 0 1-.1-.078l-2.144-2.244a.432.432 0 0 1-.115-.354l.09-.727L37.834 60l-1.424-1.139a.432.432 0 0 1-.152-.427l.906-4.338-.1-3.522a.432.432 0 0 1 .02-.142s.18-.566.385-1.182c.205-.616.407-1.228.56-1.535.09-.18.338-.599.721-1.25.383-.652.874-1.482 1.36-2.299.967-1.629 1.904-3.197 1.91-3.207l3.26-6.213a.432.432 0 0 1 .095-.121l1.879-1.682 2.412-4.726a.432.432 0 0 1 .186-.186l2.345-1.224a.432.432 0 0 1 .104-.04l2.486-.574 1.334-2a.432.432 0 0 1 .36-.191V24z"></path></g><!----></svg>